<svg id="svg" version="1.1" xmlns="http://www.w3.org/2000/svg" xmlns:xlink="http://www.w3.org/1999/xlink" width="400" height="272.8" viewBox="0, 0, 400,272.8"><g id="svgg"><path id="path0" d="M77.417 0.187 C 72.080 0.635,68.933 1.036,63.125 2.008 C 61.082 2.350,59.660 2.633,57.750 3.080 C 57.108 3.230,56.283 3.420,55.917 3.501 C 54.616 3.789,52.243 4.368,51.750 4.518 C 50.844 4.794,47.760 5.697,47.250 5.836 C 46.215 6.118,44.557 6.639,43.833 6.909 C 43.421 7.063,42.858 7.253,42.583 7.330 C 41.879 7.528,38.596 8.709,37.500 9.159 C 36.996 9.365,36.415 9.602,36.208 9.684 C 35.855 9.825,35.502 9.966,34.625 10.317 C 34.419 10.399,33.875 10.632,33.417 10.833 C 32.958 11.034,32.321 11.314,32.000 11.454 C 30.093 12.286,27.000 13.878,27.000 14.027 C 27.000 14.127,27.124 14.152,27.292 14.085 C 27.903 13.840,31.284 12.705,32.000 12.504 C 32.412 12.389,32.938 12.237,33.167 12.167 C 34.130 11.871,37.386 11.002,38.750 10.677 C 39.208 10.568,39.846 10.413,40.167 10.332 C 40.487 10.251,40.975 10.144,41.250 10.095 C 41.525 10.046,42.650 9.810,43.750 9.571 C 44.850 9.332,46.125 9.073,46.583 8.997 C 47.042 8.920,48.054 8.747,48.833 8.614 C 53.149 7.873,59.877 7.063,65.250 6.637 C 68.829 6.354,83.024 6.355,86.583 6.639 C 89.825 6.897,95.550 7.510,97.750 7.833 C 98.300 7.914,99.350 8.065,100.083 8.169 C 100.817 8.273,101.754 8.421,102.167 8.498 C 102.579 8.575,103.479 8.725,104.167 8.830 C 104.854 8.936,105.679 9.089,106.000 9.172 C 106.321 9.254,107.371 9.482,108.333 9.679 C 109.296 9.875,110.346 10.095,110.667 10.168 C 110.987 10.240,111.625 10.379,112.083 10.476 C 112.866 10.641,114.066 10.949,116.417 11.588 C 116.967 11.737,117.942 11.996,118.583 12.162 C 119.225 12.328,119.862 12.504,120.000 12.553 C 120.138 12.602,121.375 12.993,122.750 13.423 C 126.518 14.600,130.760 16.068,132.500 16.797 C 132.729 16.893,133.517 17.210,134.250 17.503 C 134.983 17.795,135.846 18.147,136.167 18.284 C 136.487 18.422,136.900 18.594,137.083 18.667 C 137.540 18.848,138.408 19.226,139.500 19.717 C 140.004 19.944,140.792 20.296,141.250 20.499 C 142.504 21.056,149.274 24.422,150.417 25.056 C 150.967 25.361,151.942 25.898,152.583 26.248 C 153.225 26.598,153.938 27.012,154.167 27.168 C 154.396 27.325,154.921 27.640,155.333 27.869 C 156.858 28.717,157.276 28.965,158.460 29.724 C 159.126 30.151,159.710 30.500,159.759 30.500 C 159.808 30.500,159.938 30.575,160.049 30.667 C 160.159 30.760,160.737 31.145,161.333 31.525 C 163.403 32.843,166.923 35.219,168.083 36.080 C 168.725 36.556,169.962 37.474,170.833 38.120 C 172.827 39.597,175.424 41.585,176.100 42.151 C 176.384 42.389,176.909 42.823,177.267 43.116 C 177.624 43.408,178.117 43.821,178.361 44.032 C 178.605 44.244,178.945 44.529,179.117 44.667 C 179.960 45.343,181.445 46.604,181.667 46.830 C 181.804 46.971,182.217 47.339,182.583 47.648 C 183.486 48.410,184.724 49.537,185.858 50.631 C 186.741 51.483,187.569 51.844,186.882 51.078 C 186.718 50.895,186.210 50.296,185.754 49.747 C 185.297 49.199,184.885 48.712,184.837 48.667 C 184.789 48.621,184.375 48.135,183.917 47.587 C 183.458 47.039,182.896 46.379,182.667 46.120 C 182.438 45.861,182.063 45.438,181.833 45.180 C 178.057 40.925,172.158 35.085,167.763 31.250 C 167.133 30.700,166.310 29.982,165.934 29.654 C 165.558 29.326,164.500 28.464,163.583 27.738 C 162.667 27.013,161.879 26.381,161.833 26.334 C 161.787 26.287,161.450 26.027,161.083 25.758 C 160.717 25.488,160.379 25.221,160.333 25.164 C 160.287 25.108,159.875 24.807,159.417 24.497 C 158.958 24.186,158.482 23.833,158.357 23.710 C 158.233 23.588,157.670 23.178,157.107 22.798 C 156.544 22.419,156.046 22.065,156.000 22.012 C 155.889 21.883,151.428 18.934,149.739 17.873 C 147.677 16.576,146.944 16.155,143.083 14.044 C 140.448 12.604,136.123 10.542,132.583 9.038 C 126.433 6.425,117.302 3.578,111.333 2.412 C 108.240 1.808,107.202 1.625,105.167 1.325 C 104.479 1.223,103.242 1.037,102.417 0.911 C 100.970 0.690,99.424 0.528,95.324 0.169 C 93.062 -0.029,79.836 -0.016,77.417 0.187 M0.027 43.873 C 0.083 44.103,1.906 45.772,3.984 47.495 C 4.589 47.997,5.196 48.522,5.333 48.663 C 5.471 48.803,5.958 49.218,6.417 49.584 C 6.875 49.950,7.400 50.374,7.583 50.526 C 8.650 51.409,10.217 52.626,12.167 54.085 C 12.854 54.600,13.529 55.111,13.667 55.222 C 13.804 55.334,14.442 55.797,15.083 56.253 C 15.725 56.709,16.362 57.174,16.500 57.286 C 17.116 57.787,23.713 62.169,25.618 63.343 C 26.279 63.750,26.823 64.168,26.827 64.273 C 26.830 64.377,26.952 64.864,27.096 65.356 C 27.241 65.848,27.439 66.550,27.536 66.917 C 27.956 68.507,28.511 70.222,29.423 72.750 C 29.754 73.667,30.085 74.604,30.159 74.833 C 30.233 75.063,30.896 76.712,31.632 78.500 C 32.772 81.266,33.243 82.394,34.315 84.917 C 34.393 85.100,34.645 85.662,34.875 86.167 C 35.105 86.671,35.406 87.346,35.545 87.667 C 36.199 89.179,37.584 92.165,38.830 94.750 C 39.272 95.667,40.135 97.467,40.749 98.750 C 44.593 106.796,46.038 109.334,45.156 106.491 C 44.973 105.900,44.757 105.117,44.678 104.750 C 44.598 104.383,44.375 103.521,44.183 102.833 C 43.027 98.703,41.189 90.679,40.499 86.750 C 40.418 86.292,40.241 85.279,40.104 84.500 C 38.549 75.628,38.639 69.293,40.331 68.418 C 43.192 66.939,60.396 67.431,72.750 69.346 C 76.408 69.913,86.591 72.002,87.044 72.278 C 87.114 72.321,86.589 72.771,85.877 73.280 C 78.400 78.621,73.142 86.444,71.081 95.292 L 70.877 96.167 73.314 96.165 L 75.750 96.163 76.383 94.186 C 77.006 92.241,78.456 89.063,79.310 87.773 L 79.744 87.117 84.414 87.220 C 88.479 87.310,93.974 87.730,95.956 88.102 L 96.499 88.204 95.871 88.658 C 93.427 90.429,90.793 93.682,89.362 96.698 C 88.662 98.174,88.675 98.244,89.708 98.576 C 97.826 101.182,96.907 105.002,87.786 106.575 L 87.154 106.684 87.256 107.967 C 87.533 111.455,88.722 115.149,90.447 117.882 C 90.963 118.698,91.110 118.663,88.667 118.311 C 86.050 117.934,82.661 117.556,79.360 117.273 C 76.493 117.028,76.675 117.129,76.180 115.500 C 75.348 112.762,74.879 110.460,74.731 108.390 C 74.670 107.550,74.575 106.792,74.519 106.706 C 74.433 106.575,70.316 105.795,70.220 105.891 C 69.958 106.153,71.069 112.137,71.834 114.583 C 72.120 115.500,72.393 116.400,72.439 116.583 C 72.521 116.913,72.435 116.917,64.719 116.932 C 59.833 116.942,56.668 117.014,56.250 117.124 C 55.653 117.282,55.757 117.301,57.250 117.314 C 60.270 117.339,71.405 118.290,75.333 118.858 C 76.021 118.958,76.824 119.062,77.119 119.090 C 77.609 119.136,78.450 119.254,81.250 119.666 C 81.800 119.747,82.850 119.897,83.583 119.999 C 85.517 120.267,88.309 120.730,90.167 121.089 C 91.268 121.303,92.780 121.581,96.000 122.164 C 97.934 122.514,100.461 123.021,101.500 123.268 C 102.096 123.410,102.883 123.591,103.250 123.670 C 103.617 123.749,104.592 123.960,105.417 124.139 C 106.242 124.317,107.367 124.554,107.917 124.664 C 108.467 124.775,109.100 124.938,109.324 125.027 C 109.548 125.116,110.073 125.262,110.490 125.352 C 110.908 125.442,111.587 125.594,112.000 125.691 C 112.412 125.787,113.013 125.927,113.333 126.003 C 114.257 126.219,119.720 127.651,121.583 128.166 C 121.858 128.242,122.533 128.426,123.083 128.575 C 123.633 128.724,124.683 129.027,125.417 129.249 C 126.150 129.471,127.313 129.817,128.000 130.017 C 129.857 130.558,131.225 130.978,133.083 131.578 C 134.000 131.874,135.313 132.286,136.000 132.492 C 136.688 132.699,137.380 132.935,137.539 133.017 C 137.699 133.099,137.965 133.167,138.131 133.167 C 138.297 133.167,138.505 133.234,138.592 133.316 C 138.679 133.399,139.387 133.668,140.167 133.914 C 140.946 134.160,141.733 134.427,141.917 134.506 C 142.100 134.585,142.587 134.760,143.000 134.894 C 143.412 135.029,144.106 135.292,144.542 135.480 C 144.977 135.668,145.333 135.761,145.333 135.688 C 145.333 135.432,139.447 132.714,134.461 130.667 L 133.171 130.137 134.499 128.694 C 136.728 126.271,139.151 122.879,138.920 122.505 C 138.660 122.085,138.007 122.333,137.679 122.977 C 137.139 124.035,134.893 126.949,133.528 128.363 L 132.250 129.686 131.417 129.351 C 129.709 128.665,125.929 127.312,123.359 126.467 L 120.706 125.595 122.047 124.677 C 124.125 123.256,128.000 119.318,128.000 118.629 C 128.000 118.575,127.345 118.176,126.544 117.743 C 124.633 116.710,122.281 115.121,121.287 114.191 L 120.492 113.447 119.307 114.732 C 111.299 123.423,97.063 116.358,99.431 104.868 C 102.117 91.840,121.419 93.294,122.210 106.583 L 122.250 107.250 125.083 107.354 C 127.550 107.444,128.703 107.585,131.112 108.092 C 131.637 108.202,131.642 108.198,131.764 107.393 C 131.918 106.375,131.576 102.769,131.171 101.145 C 131.003 100.470,130.886 99.895,130.912 99.867 C 131.206 99.562,142.004 107.229,142.569 108.144 C 142.614 108.216,142.542 108.945,142.409 109.763 C 142.080 111.789,142.084 111.814,142.708 112.078 C 143.379 112.361,143.344 112.439,143.850 109.566 C 144.635 105.115,144.370 99.146,143.177 94.427 C 142.900 93.333,142.708 92.403,142.750 92.361 C 142.915 92.197,157.163 99.078,159.167 100.289 C 160.157 100.888,162.290 102.032,165.987 103.947 C 166.759 104.346,167.472 104.738,167.570 104.816 C 167.669 104.894,168.500 105.354,169.417 105.838 C 170.333 106.321,171.363 106.893,171.705 107.108 C 172.047 107.324,172.365 107.500,172.411 107.500 C 172.457 107.500,173.132 107.882,173.910 108.349 C 174.689 108.815,175.405 109.170,175.503 109.138 C 175.700 109.072,171.092 104.488,169.250 102.917 C 168.608 102.369,168.046 101.883,168.000 101.836 C 167.954 101.789,167.467 101.376,166.917 100.919 C 166.367 100.461,165.835 100.011,165.735 99.919 C 165.635 99.826,165.303 99.563,164.998 99.333 C 164.693 99.104,164.169 98.689,163.833 98.411 C 163.497 98.133,162.666 97.497,161.986 96.997 C 161.306 96.497,160.654 95.996,160.536 95.883 C 160.418 95.771,160.099 95.547,159.827 95.387 C 159.556 95.226,159.333 95.036,159.333 94.964 C 159.333 94.892,159.227 94.833,159.097 94.833 C 158.967 94.833,158.836 94.764,158.806 94.680 C 158.763 94.564,154.155 91.350,152.333 90.166 C 149.897 88.583,146.038 86.210,144.667 85.451 C 144.162 85.172,143.450 84.755,143.083 84.524 C 142.717 84.294,141.892 83.830,141.250 83.495 C 140.608 83.160,139.671 82.649,139.167 82.359 C 138.210 81.810,129.744 77.592,128.583 77.086 C 128.217 76.926,127.429 76.570,126.833 76.295 C 126.237 76.020,125.600 75.731,125.417 75.653 C 125.233 75.576,124.371 75.206,123.500 74.831 C 122.629 74.457,121.054 73.810,120.000 73.393 C 118.946 72.977,117.933 72.576,117.750 72.501 C 117.098 72.236,115.236 71.524,114.333 71.194 C 113.829 71.010,112.810 70.632,112.069 70.355 C 111.327 70.077,109.115 69.322,107.152 68.677 C 102.610 67.185,103.114 67.341,99.417 66.282 C 96.621 65.481,95.227 65.103,92.750 64.475 C 92.383 64.382,91.708 64.203,91.250 64.076 C 90.479 63.864,90.065 63.767,88.000 63.311 C 87.587 63.220,86.987 63.076,86.667 62.991 C 85.991 62.812,83.765 62.352,82.649 62.160 C 82.226 62.087,81.589 61.951,81.232 61.856 C 80.875 61.762,80.096 61.600,79.500 61.497 C 78.904 61.393,78.079 61.244,77.667 61.167 C 76.631 60.971,75.135 60.714,73.750 60.493 C 73.108 60.391,71.983 60.203,71.250 60.077 C 70.029 59.866,69.405 59.774,66.167 59.327 C 64.627 59.115,60.127 58.613,57.333 58.342 C 48.632 57.499,44.914 57.309,35.454 57.227 C 27.495 57.157,26.567 57.121,25.704 56.843 C 24.694 56.518,20.384 54.854,19.358 54.393 C 17.922 53.747,15.508 52.606,14.583 52.135 C 11.767 50.700,10.472 50.018,10.287 49.873 C 10.175 49.785,9.521 49.410,8.833 49.038 C 7.542 48.340,4.044 46.283,3.750 46.048 C 3.658 45.974,3.058 45.584,2.417 45.181 C 1.775 44.778,0.962 44.267,0.610 44.045 C 0.189 43.780,-0.010 43.721,0.027 43.873 M330.167 47.929 C 325.896 48.115,319.096 48.961,315.500 49.754 C 312.387 50.440,311.899 50.556,310.250 50.998 C 308.320 51.517,307.973 51.617,307.417 51.818 C 307.142 51.918,305.867 52.344,304.583 52.767 C 303.300 53.189,301.912 53.687,301.500 53.873 C 301.087 54.059,300.600 54.269,300.417 54.339 C 300.233 54.409,299.728 54.624,299.293 54.817 C 298.859 55.009,298.466 55.167,298.421 55.167 C 298.234 55.167,294.306 57.131,292.854 57.951 C 291.994 58.436,291.265 58.833,291.234 58.833 C 291.121 58.833,285.982 62.173,285.833 62.343 C 285.787 62.396,285.375 62.691,284.917 63.000 C 284.458 63.309,284.046 63.608,284.000 63.664 C 283.954 63.721,283.618 63.989,283.253 64.259 C 280.848 66.040,274.833 71.578,274.833 72.011 C 274.833 72.240,274.980 72.204,275.474 71.853 C 276.205 71.336,278.516 70.000,278.680 70.000 C 278.765 70.000,278.833 69.925,278.833 69.833 C 278.833 69.742,278.914 69.667,279.013 69.667 C 279.112 69.667,279.955 69.244,280.888 68.726 C 282.677 67.734,286.401 65.850,288.083 65.087 C 288.633 64.837,289.458 64.462,289.917 64.253 C 292.735 62.970,296.628 61.420,299.333 60.503 C 299.837 60.332,300.587 60.066,301.000 59.911 C 301.412 59.756,302.237 59.482,302.833 59.301 C 303.846 58.994,304.130 58.911,305.542 58.514 C 305.840 58.430,306.496 58.240,307.000 58.092 C 308.793 57.564,310.571 57.093,311.750 56.832 C 312.117 56.751,313.204 56.498,314.167 56.271 C 316.443 55.733,318.050 55.411,320.458 55.008 C 322.868 54.604,323.479 54.509,324.667 54.348 C 325.354 54.255,326.742 54.067,327.750 53.930 C 328.758 53.793,330.483 53.603,331.583 53.509 C 332.683 53.414,334.596 53.250,335.833 53.145 C 338.795 52.891,352.372 52.890,355.500 53.142 C 356.829 53.249,358.892 53.415,360.083 53.510 C 361.275 53.605,363.037 53.789,364.000 53.919 C 364.962 54.049,366.387 54.237,367.167 54.337 C 369.602 54.650,370.873 54.840,373.833 55.333 C 376.125 55.715,376.968 55.870,377.917 56.081 C 378.467 56.204,379.310 56.386,379.792 56.486 C 383.388 57.230,387.256 58.193,391.958 59.514 C 392.256 59.598,392.744 59.735,393.042 59.819 C 393.340 59.902,393.808 60.052,394.083 60.151 C 398.229 61.646,401.579 62.544,399.125 61.503 C 398.644 61.299,397.988 61.020,397.667 60.882 C 395.903 60.128,392.299 58.707,391.402 58.413 C 390.952 58.265,390.358 58.045,390.083 57.923 C 389.808 57.801,388.121 57.216,386.333 56.621 C 383.274 55.604,381.968 55.192,379.583 54.492 C 379.033 54.331,377.908 54.000,377.083 53.758 C 376.258 53.516,375.321 53.253,375.000 53.173 C 374.679 53.093,374.117 52.949,373.750 52.853 C 372.251 52.462,367.289 51.295,365.833 50.992 C 365.329 50.887,364.617 50.737,364.250 50.659 C 363.883 50.581,363.058 50.431,362.417 50.326 C 361.775 50.221,360.762 50.036,360.167 49.914 C 359.571 49.793,358.521 49.610,357.833 49.508 C 357.146 49.405,356.133 49.254,355.583 49.171 C 354.088 48.945,350.783 48.574,346.583 48.162 C 344.819 47.988,332.737 47.817,330.167 47.929 M298.000 85.931 C 294.904 86.050,290.023 86.682,287.000 87.356 C 286.587 87.448,285.912 87.598,285.500 87.689 C 282.743 88.297,278.275 89.772,275.833 90.880 C 275.329 91.109,274.557 91.458,274.117 91.656 C 272.947 92.182,269.715 93.964,268.750 94.614 C 268.292 94.923,267.776 95.268,267.603 95.380 C 267.079 95.721,264.762 97.395,264.562 97.578 C 264.459 97.673,263.959 98.087,263.452 98.500 C 258.250 102.731,252.480 110.541,249.783 117.000 C 249.649 117.321,249.413 117.868,249.258 118.216 C 248.733 119.397,249.097 119.221,250.254 117.733 C 250.889 116.917,251.549 116.100,251.722 115.917 C 251.895 115.733,252.223 115.283,252.451 114.917 C 253.719 112.877,260.676 106.620,264.583 104.005 C 282.133 92.255,305.537 90.743,328.583 99.869 C 342.223 105.270,354.996 115.156,356.747 121.667 C 358.340 127.594,355.817 140.707,350.269 155.330 C 349.766 156.657,349.379 157.768,349.410 157.799 C 349.477 157.866,353.234 152.416,354.212 150.833 C 359.670 142.009,363.086 134.912,364.678 129.083 C 366.284 123.205,366.235 119.023,364.518 115.544 C 362.404 111.260,358.579 106.891,353.187 102.597 C 351.911 101.581,347.258 98.408,346.404 97.971 C 346.136 97.833,345.654 97.568,345.333 97.381 C 343.622 96.383,342.620 95.841,341.417 95.261 C 339.151 94.169,337.345 93.333,337.252 93.333 C 337.172 93.333,336.656 93.116,335.083 92.422 C 334.808 92.301,334.171 92.051,333.667 91.867 C 333.162 91.683,332.412 91.404,332.000 91.248 C 331.063 90.893,327.920 89.842,327.250 89.659 C 323.927 88.754,320.936 87.992,320.000 87.812 C 319.496 87.715,318.783 87.578,318.417 87.508 C 311.634 86.212,304.675 85.674,298.000 85.931 M292.083 120.615 C 283.061 121.788,275.471 129.576,274.723 138.427 L 274.621 139.625 275.769 139.701 C 277.058 139.787,277.093 139.763,277.244 138.681 C 278.069 132.776,283.266 127.026,289.358 125.275 C 299.163 122.458,308.665 128.194,311.168 138.441 C 311.325 139.084,311.419 139.172,312.543 139.720 C 313.207 140.045,314.005 140.480,314.318 140.688 L 314.886 141.066 314.766 139.328 C 313.966 127.717,303.550 119.124,292.083 120.615 M290.557 132.174 C 285.818 133.111,280.939 139.739,283.142 142.247 C 283.927 143.142,284.024 143.989,283.488 145.282 C 283.057 146.322,285.274 149.369,287.384 150.637 C 291.593 153.166,297.636 152.214,300.405 148.584 L 300.814 148.047 299.918 147.274 C 299.057 146.530,298.667 146.335,298.667 146.647 C 298.667 147.041,296.812 148.578,295.667 149.132 C 288.405 152.649,281.481 143.344,286.774 137.181 C 290.077 133.336,296.901 134.059,299.163 138.493 C 299.352 138.864,299.542 139.167,299.585 139.167 C 299.673 139.167,301.885 138.304,301.974 138.235 C 302.194 138.065,300.744 135.898,299.740 134.897 C 297.379 132.541,293.906 131.511,290.557 132.174 M276.333 148.167 C 276.121 148.305,276.197 148.549,276.833 149.778 C 278.614 153.217,281.891 156.572,285.077 158.217 L 286.083 158.737 284.667 158.859 C 278.269 159.412,272.759 160.174,269.833 160.912 L 268.917 161.143 270.500 161.075 C 271.371 161.037,276.246 160.958,281.333 160.900 C 293.096 160.764,297.351 160.983,306.333 162.186 C 310.351 162.724,313.480 163.284,316.000 163.917 C 316.504 164.043,317.292 164.233,317.750 164.339 C 318.208 164.445,318.771 164.591,319.000 164.663 C 319.229 164.736,319.754 164.889,320.167 165.005 C 320.765 165.173,323.231 165.972,324.667 166.464 C 325.172 166.636,324.577 166.188,323.500 165.585 C 318.188 162.611,311.071 160.316,304.583 159.485 C 303.758 159.380,302.973 159.261,302.838 159.221 C 302.700 159.180,303.207 158.821,303.995 158.400 C 306.786 156.908,309.363 154.680,311.047 152.301 C 312.249 150.604,312.264 150.666,310.643 150.669 C 309.030 150.672,309.136 150.619,308.171 151.917 C 305.905 154.965,303.093 157.029,299.664 158.159 L 298.176 158.649 294.046 158.560 C 289.611 158.465,288.966 158.366,287.021 157.484 C 283.530 155.901,279.967 152.354,278.573 149.075 L 278.117 148.000 277.350 148.003 C 276.928 148.004,276.471 148.078,276.333 148.167 M225.062 153.458 C 226.090 157.005,226.428 163.285,225.845 168.000 C 225.258 172.741,225.487 173.833,227.065 173.833 C 229.651 173.833,229.286 162.311,226.492 155.723 C 225.828 154.156,225.751 154.000,225.644 154.000 C 225.585 154.000,225.489 153.813,225.432 153.583 C 225.374 153.354,225.248 153.167,225.152 153.167 C 225.056 153.167,225.016 153.298,225.062 153.458 M87.596 179.929 C 86.716 180.460,84.500 182.556,84.500 182.858 C 84.500 182.923,84.406 183.075,84.292 183.196 C 83.737 183.782,82.113 186.636,81.415 188.250 C 81.256 188.617,80.955 189.292,80.745 189.750 C 80.309 190.702,79.932 191.681,79.492 193.000 C 79.324 193.504,79.042 194.329,78.865 194.833 C 78.688 195.338,78.450 196.088,78.336 196.500 C 78.221 196.912,78.068 197.438,77.994 197.667 C 77.920 197.896,77.701 198.758,77.506 199.583 C 77.311 200.408,77.048 201.496,76.921 202.000 C 76.535 203.532,76.139 205.717,75.847 207.917 C 75.750 208.650,75.594 209.834,75.502 210.548 C 75.083 213.777,75.332 220.111,75.978 222.667 C 76.265 223.802,77.421 226.344,77.708 226.472 C 77.777 226.503,77.833 226.598,77.833 226.684 C 77.833 227.031,79.898 229.923,81.329 231.580 C 82.243 232.638,85.458 235.804,86.918 237.083 C 87.651 237.725,88.333 238.325,88.435 238.417 C 88.537 238.508,88.907 238.808,89.256 239.083 C 89.606 239.358,89.973 239.659,90.071 239.751 C 90.170 239.843,90.888 240.391,91.667 240.969 C 92.446 241.547,93.196 242.111,93.333 242.222 C 94.338 243.037,101.409 247.805,102.925 248.689 C 105.342 250.101,106.973 251.075,107.333 251.324 C 107.563 251.483,108.425 251.973,109.250 252.414 C 110.075 252.855,110.825 253.271,110.917 253.337 C 111.271 253.595,114.551 255.293,117.417 256.703 C 119.067 257.515,120.547 258.252,120.706 258.340 C 121.125 258.571,121.238 258.537,121.000 258.250 C 120.886 258.112,120.733 258.000,120.660 258.000 C 119.618 258.000,106.024 249.372,99.871 244.805 C 85.036 233.793,78.602 226.199,77.824 218.780 C 77.592 216.566,77.571 216.586,78.953 217.691 C 87.776 224.747,89.223 225.246,98.705 224.499 L 100.994 224.319 102.705 225.631 C 106.921 228.863,111.889 231.112,118.167 232.633 C 121.756 233.502,124.483 233.936,122.500 233.322 C 113.510 230.541,108.708 228.247,104.115 224.540 C 101.366 222.321,101.629 222.421,99.094 222.646 C 96.335 222.892,91.266 222.887,90.138 222.637 C 86.800 221.897,81.141 214.276,79.162 207.857 L 78.629 206.130 78.992 204.357 C 79.586 201.453,80.432 198.222,81.197 195.930 L 81.917 193.777 83.667 192.874 C 87.189 191.057,87.938 190.705,89.000 190.368 C 90.909 189.761,92.243 189.611,94.664 189.728 C 98.739 189.927,98.167 189.654,100.785 192.647 C 114.164 207.942,121.531 210.907,151.333 212.996 C 169.802 214.290,173.270 214.616,180.500 215.737 C 190.710 217.319,196.043 218.883,209.458 224.226 C 218.640 227.884,221.759 228.987,226.250 230.164 C 227.918 230.602,231.262 231.264,232.583 231.419 C 240.544 232.350,240.901 234.794,234.102 241.823 C 232.524 243.455,230.824 245.327,230.324 245.983 C 229.250 247.394,227.718 248.289,224.917 249.143 C 221.094 250.308,218.782 250.584,212.917 250.574 C 207.684 250.565,204.239 250.277,198.250 249.346 C 197.700 249.260,196.725 249.111,196.083 249.014 C 194.926 248.839,194.524 248.771,191.529 248.244 C 190.674 248.093,189.936 248.008,189.889 248.055 C 189.696 248.249,197.138 250.392,200.171 251.015 C 203.085 251.615,206.653 252.263,211.118 253.003 C 215.391 253.712,217.236 254.366,219.272 255.897 C 220.650 256.933,221.272 257.748,220.977 258.132 C 218.993 260.717,214.377 265.518,211.369 268.125 C 210.152 269.181,209.188 270.077,209.228 270.117 C 209.293 270.182,212.463 268.075,212.667 267.832 C 212.713 267.777,213.050 267.512,213.417 267.242 C 213.783 266.973,214.121 266.714,214.167 266.667 C 214.213 266.620,214.512 266.383,214.833 266.141 C 215.154 265.899,215.568 265.562,215.753 265.392 C 215.937 265.222,216.537 264.708,217.085 264.250 C 218.136 263.372,218.220 263.293,220.689 260.908 C 222.247 259.403,225.059 256.423,225.729 255.568 C 225.924 255.320,226.234 254.959,226.418 254.767 C 226.602 254.574,227.052 254.042,227.418 253.583 C 227.784 253.125,228.123 252.713,228.172 252.667 C 228.221 252.621,228.559 252.211,228.922 251.755 C 229.286 251.299,229.708 250.774,229.859 250.588 C 230.348 249.990,231.737 248.230,232.167 247.666 C 232.805 246.828,233.633 245.883,234.940 244.505 C 235.594 243.815,236.519 242.838,236.995 242.333 C 243.762 235.168,242.831 230.869,234.250 229.666 C 231.917 229.339,230.779 229.147,229.667 228.894 C 229.071 228.758,228.246 228.572,227.833 228.480 C 224.831 227.810,220.351 226.362,216.583 224.842 C 214.622 224.051,214.634 224.056,213.975 223.767 C 213.640 223.620,213.314 223.500,213.250 223.500 C 213.125 223.500,212.105 223.072,211.624 222.817 C 211.462 222.732,210.750 222.432,210.040 222.151 C 208.710 221.624,208.307 221.454,206.964 220.855 C 206.532 220.662,205.482 220.234,204.631 219.904 C 203.780 219.574,202.545 219.087,201.886 218.822 C 200.643 218.321,197.286 217.192,194.833 216.449 C 193.095 215.923,188.337 214.795,186.000 214.355 C 183.137 213.815,179.745 213.299,177.083 212.997 C 176.167 212.893,174.940 212.735,174.357 212.646 C 172.250 212.324,166.106 211.819,158.417 211.335 C 157.042 211.248,154.679 211.100,153.167 211.006 C 142.888 210.366,134.387 209.421,129.917 208.421 C 129.275 208.278,128.412 208.089,128.000 208.001 C 127.348 207.863,125.737 207.454,124.083 207.009 C 121.815 206.398,117.125 204.342,115.641 203.308 C 115.398 203.139,115.151 203.000,115.092 203.000 C 115.034 203.000,114.895 202.921,114.785 202.825 C 114.674 202.729,114.171 202.350,113.667 201.983 C 111.052 200.077,107.212 196.453,104.327 193.167 C 103.643 192.388,102.971 191.638,102.833 191.500 C 102.696 191.363,102.208 190.800,101.750 190.250 C 101.292 189.700,100.767 189.092,100.583 188.900 C 100.400 188.707,100.100 188.361,99.917 188.131 C 97.935 185.638,94.331 181.830,93.083 180.910 C 92.717 180.640,92.378 180.368,92.332 180.306 C 91.539 179.255,89.044 179.057,87.596 179.929 " stroke="none" fill="#351a28" fill-rule="evenodd"></path><path id="path1" d="M39.500 80.001 C 39.500 81.116,41.540 91.866,42.599 96.333 C 43.910 101.864,44.551 104.297,44.970 105.333 C 45.063 105.563,45.458 106.567,45.848 107.567 C 46.744 109.863,48.023 112.356,48.619 112.970 C 48.737 113.091,48.834 113.241,48.836 113.304 C 48.840 113.545,50.789 115.485,51.510 115.966 C 53.240 117.120,53.794 117.184,59.138 116.848 C 61.347 116.710,64.539 116.652,67.575 116.696 L 72.458 116.767 71.994 115.425 C 71.171 113.050,70.434 109.573,70.222 107.069 C 70.100 105.628,69.961 105.698,72.167 106.093 C 83.143 108.056,95.691 106.127,95.113 102.565 C 94.569 99.217,82.758 95.870,72.625 96.193 C 71.477 96.229,70.833 96.189,70.833 96.080 C 70.834 95.751,71.650 92.739,72.051 91.583 C 72.986 88.893,74.313 86.110,75.735 83.857 L 76.162 83.181 75.623 83.093 C 75.326 83.044,74.633 82.931,74.083 82.841 C 62.605 80.967,39.500 79.070,39.500 80.001 M109.932 100.501 C 105.997 101.202,103.160 105.495,104.066 109.376 C 105.451 115.306,112.533 117.375,116.753 113.082 C 121.821 107.926,117.104 99.224,109.932 100.501 M144.333 106.638 C 144.333 112.918,140.057 122.691,134.716 128.614 C 133.431 130.038,133.361 130.153,133.709 130.260 C 134.342 130.455,138.754 132.328,140.750 133.249 C 143.704 134.612,145.608 135.581,145.881 135.861 C 146.796 136.798,149.462 136.006,151.214 134.279 C 152.874 132.643,155.511 128.436,156.038 126.583 C 156.091 126.400,156.334 125.725,156.579 125.083 C 157.266 123.285,157.790 121.492,158.333 119.083 C 158.628 117.772,158.892 116.170,158.822 116.117 C 153.574 112.121,144.333 106.075,144.333 106.638 M288.833 106.859 C 278.378 107.527,267.601 109.674,257.083 113.186 C 252.924 114.575,253.176 114.367,252.755 116.750 C 252.706 117.025,252.596 117.550,252.511 117.917 C 252.361 118.556,252.234 119.401,251.820 122.500 C 251.571 124.360,251.565 132.149,251.811 134.167 C 252.235 137.651,252.487 139.165,252.937 140.917 C 253.078 141.467,253.258 142.179,253.338 142.500 C 255.831 152.569,261.721 160.666,266.985 161.262 C 267.615 161.333,268.077 161.310,268.207 161.202 C 268.469 160.985,272.044 160.269,275.083 159.825 C 277.341 159.496,279.939 159.188,282.083 158.996 C 283.275 158.889,284.542 158.752,284.899 158.691 L 285.549 158.580 284.678 158.106 C 281.512 156.383,278.373 153.053,276.606 149.546 C 275.828 148.000,275.809 148.058,277.125 147.924 C 281.118 147.518,284.125 145.498,283.723 143.492 C 283.329 141.518,278.894 139.667,274.560 139.667 C 274.472 139.667,274.620 138.293,274.864 136.833 C 276.681 125.976,288.584 118.124,299.083 120.856 C 317.433 125.630,320.709 149.571,304.218 158.371 L 302.852 159.100 304.301 159.310 C 310.784 160.250,316.669 162.002,321.583 164.456 C 323.363 165.345,325.000 166.329,325.000 166.511 C 325.000 166.582,325.984 167.028,327.186 167.501 C 335.913 170.938,341.901 169.535,346.392 163.001 C 347.779 160.982,349.183 158.494,349.260 157.917 C 349.285 157.733,349.508 157.058,349.755 156.417 C 352.038 150.499,354.089 144.066,355.307 139.000 C 356.330 134.748,356.381 135.340,354.822 133.413 C 339.337 114.274,316.514 105.090,288.833 106.859 M290.322 138.158 C 288.313 138.768,286.873 141.222,287.345 143.231 C 288.580 148.490,296.163 147.789,296.163 142.417 C 296.163 139.452,293.194 137.287,290.322 138.158 M99.282 195.546 C 99.162 200.839,98.705 205.328,97.482 213.250 C 97.025 216.210,96.106 221.432,95.888 222.303 L 95.791 222.690 98.774 222.572 L 101.757 222.454 103.356 223.783 C 108.408 227.982,114.368 230.887,122.720 233.219 C 125.338 233.951,125.615 234.166,123.524 233.844 C 117.100 232.855,111.103 230.924,106.667 228.417 C 106.099 228.096,105.613 227.833,105.585 227.833 C 105.558 227.833,105.223 228.548,104.840 229.422 C 101.604 236.798,100.290 245.130,102.158 246.417 C 106.895 249.680,116.231 255.667,116.585 255.667 C 116.615 255.667,117.189 255.991,117.861 256.388 C 118.533 256.785,119.796 257.475,120.667 257.921 C 121.537 258.368,122.601 258.946,123.029 259.206 C 124.472 260.083,129.299 261.879,133.667 263.163 C 134.354 263.365,135.217 263.634,135.583 263.762 C 135.950 263.889,136.981 264.182,137.875 264.413 C 138.769 264.644,140.194 265.017,141.042 265.242 C 144.789 266.236,148.734 267.149,150.756 267.490 C 151.126 267.552,151.507 267.651,151.602 267.710 C 151.697 267.769,152.256 267.902,152.846 268.007 C 153.435 268.111,154.217 268.258,154.583 268.333 C 155.630 268.547,157.159 268.834,158.250 269.023 C 160.244 269.367,160.782 269.461,162.667 269.793 C 163.721 269.979,165.183 270.218,165.917 270.325 C 166.650 270.432,167.700 270.586,168.250 270.667 C 170.011 270.925,171.708 271.148,173.333 271.334 C 174.204 271.433,175.742 271.620,176.750 271.748 C 178.479 271.967,179.994 272.104,185.045 272.500 C 186.215 272.592,188.690 272.666,190.545 272.664 L 193.917 272.662 194.729 270.622 C 197.269 264.247,201.095 257.715,204.885 253.286 C 205.339 252.755,205.682 252.295,205.647 252.262 C 205.612 252.230,204.383 251.969,202.917 251.682 C 197.927 250.707,193.829 249.639,190.009 248.317 C 187.143 247.325,187.215 247.300,190.943 247.987 C 193.261 248.414,195.226 248.747,198.917 249.337 C 200.714 249.624,205.382 250.154,207.000 250.255 C 207.871 250.309,208.744 250.386,208.940 250.425 C 209.234 250.485,209.422 250.286,210.010 249.290 C 213.869 242.759,219.622 235.809,224.730 231.507 L 226.199 230.270 225.391 230.044 C 220.479 228.669,217.196 227.482,207.750 223.668 C 190.998 216.902,182.774 215.276,155.917 213.419 C 120.523 210.971,114.649 208.714,100.066 191.961 L 99.382 191.175 99.282 195.546 " stroke="none" fill="#f8f4f4" fill-rule="evenodd"></path><path id="path2" d="M50.955 67.620 C 51.250 67.657,51.775 67.658,52.121 67.622 C 52.467 67.586,52.225 67.555,51.583 67.555 C 50.942 67.554,50.659 67.583,50.955 67.620 M46.292 67.787 C 46.590 67.824,47.077 67.824,47.375 67.787 C 47.673 67.750,47.429 67.720,46.833 67.720 C 46.237 67.720,45.994 67.750,46.292 67.787 M56.455 67.787 C 56.750 67.824,57.275 67.824,57.621 67.788 C 57.967 67.752,57.725 67.722,57.083 67.721 C 56.442 67.721,56.159 67.750,56.455 67.787 M61.875 68.115 C 62.035 68.157,62.298 68.157,62.458 68.115 C 62.619 68.073,62.487 68.039,62.167 68.039 C 61.846 68.039,61.715 68.073,61.875 68.115 M39.039 71.833 C 39.039 72.154,39.073 72.285,39.115 72.125 C 39.157 71.965,39.157 71.702,39.115 71.542 C 39.073 71.381,39.039 71.512,39.039 71.833 M39.048 75.583 C 39.049 76.042,39.081 76.209,39.120 75.956 C 39.158 75.703,39.157 75.328,39.117 75.123 C 39.078 74.918,39.046 75.125,39.048 75.583 M80.996 77.292 L 79.583 78.750 81.042 77.337 C 82.396 76.025,82.576 75.833,82.455 75.833 C 82.430 75.833,81.773 76.490,80.996 77.292 M295.208 94.115 C 295.369 94.157,295.631 94.157,295.792 94.115 C 295.952 94.073,295.821 94.039,295.500 94.039 C 295.179 94.039,295.048 94.073,295.208 94.115 M301.960 94.118 C 302.168 94.158,302.468 94.156,302.627 94.115 C 302.786 94.073,302.617 94.040,302.250 94.042 C 301.883 94.044,301.753 94.078,301.960 94.118 M292.792 94.284 C 292.998 94.324,293.335 94.324,293.542 94.284 C 293.748 94.245,293.579 94.212,293.167 94.212 C 292.754 94.212,292.585 94.245,292.792 94.284 M304.125 94.284 C 304.331 94.324,304.669 94.324,304.875 94.284 C 305.081 94.245,304.912 94.212,304.500 94.212 C 304.087 94.212,303.919 94.245,304.125 94.284 M144.212 100.167 C 144.212 100.579,144.245 100.748,144.284 100.542 C 144.324 100.335,144.324 99.998,144.284 99.792 C 144.245 99.585,144.212 99.754,144.212 100.167 M80.383 106.957 C 81.097 106.989,82.222 106.988,82.883 106.957 C 83.543 106.925,82.958 106.900,81.583 106.900 C 80.208 106.900,79.668 106.926,80.383 106.957 M343.000 107.394 C 343.000 107.440,343.225 107.638,343.500 107.833 C 343.775 108.029,344.000 108.152,344.000 108.106 C 344.000 108.060,343.775 107.862,343.500 107.667 C 343.225 107.471,343.000 107.348,343.000 107.394 M131.583 108.951 C 131.212 111.735,130.388 114.298,129.058 116.808 C 128.555 117.756,128.167 118.556,128.197 118.586 C 128.300 118.688,130.429 119.637,131.667 120.131 C 133.794 120.980,134.365 121.185,136.000 121.688 C 136.871 121.956,137.716 122.216,137.877 122.266 C 138.767 122.542,142.629 112.168,141.827 111.659 C 140.952 111.102,135.974 109.303,133.570 108.674 C 132.844 108.484,132.124 108.289,131.970 108.240 C 131.742 108.168,131.669 108.302,131.583 108.951 M257.573 109.542 L 257.083 110.083 257.625 109.594 C 258.130 109.138,258.243 109.000,258.115 109.000 C 258.086 109.000,257.842 109.244,257.573 109.542 M346.000 109.561 C 346.000 109.606,346.225 109.804,346.500 110.000 C 346.775 110.196,347.000 110.319,347.000 110.273 C 347.000 110.227,346.775 110.029,346.500 109.833 C 346.225 109.638,346.000 109.515,346.000 109.561 M349.500 112.385 C 349.500 112.414,349.744 112.658,350.042 112.927 L 350.583 113.417 350.094 112.875 C 349.638 112.370,349.500 112.257,349.500 112.385 M253.824 113.292 L 253.250 113.917 253.875 113.342 C 254.457 112.808,254.577 112.667,254.449 112.667 C 254.422 112.667,254.140 112.948,253.824 113.292 M63.792 116.791 C 64.823 116.820,66.510 116.820,67.542 116.791 C 68.573 116.762,67.729 116.738,65.667 116.738 C 63.604 116.738,62.760 116.762,63.792 116.791 M294.377 120.453 C 294.631 120.491,295.006 120.490,295.211 120.451 C 295.416 120.411,295.208 120.380,294.750 120.381 C 294.292 120.382,294.124 120.415,294.377 120.453 M303.083 138.082 C 302.992 138.112,302.719 138.181,302.477 138.234 C 302.041 138.329,302.040 138.335,302.271 139.005 C 303.200 141.704,302.609 145.694,300.972 147.774 C 300.449 148.438,306.299 150.667,308.566 150.667 C 310.038 150.667,311.800 144.281,311.427 140.298 L 311.309 139.044 310.113 138.701 C 307.988 138.091,304.086 137.747,303.083 138.082 M314.709 142.083 C 314.711 142.450,314.745 142.580,314.785 142.373 C 314.824 142.166,314.823 141.866,314.781 141.706 C 314.739 141.547,314.707 141.717,314.709 142.083 M91.500 189.851 C 89.790 190.113,87.591 190.927,85.333 192.135 C 84.188 192.748,82.950 193.369,82.583 193.515 C 81.663 193.882,80.480 197.421,79.168 203.726 L 78.688 206.036 79.100 207.458 C 80.386 211.895,83.765 217.525,87.060 220.719 C 89.005 222.604,89.877 222.848,94.500 222.801 C 96.104 222.785,97.021 222.744,96.537 222.710 C 96.054 222.677,95.694 222.591,95.737 222.521 C 95.781 222.450,95.891 221.948,95.982 221.404 C 96.073 220.861,96.269 219.742,96.419 218.917 C 96.999 215.713,96.997 215.721,97.513 212.417 C 97.701 211.215,97.903 209.736,98.231 207.167 C 99.412 197.915,99.661 191.577,98.885 190.534 C 98.585 190.132,98.408 190.072,97.233 189.975 C 94.273 189.732,92.526 189.694,91.500 189.851 M77.730 217.346 C 77.780 217.660,77.868 218.507,77.926 219.228 C 78.463 225.870,85.233 233.817,99.379 244.411 C 101.655 246.115,101.524 246.111,101.288 244.473 C 100.867 241.549,102.331 234.799,104.408 230.084 C 104.610 229.625,104.915 228.931,105.086 228.542 C 105.257 228.152,105.472 227.833,105.563 227.833 C 105.655 227.833,105.096 227.401,104.323 226.872 C 103.549 226.343,102.478 225.552,101.942 225.114 C 101.047 224.383,100.912 224.325,100.276 224.405 C 90.752 225.609,88.604 225.031,80.858 219.182 C 79.450 218.120,78.151 217.143,77.970 217.013 C 77.657 216.787,77.645 216.803,77.730 217.346 M224.401 231.948 C 221.579 234.456,218.804 237.342,216.661 240.000 C 216.254 240.504,215.878 240.954,215.825 241.000 C 215.012 241.704,209.354 250.242,209.562 250.451 C 209.760 250.649,214.363 250.689,216.667 250.514 C 224.005 249.955,228.136 248.560,230.335 245.899 C 231.008 245.084,232.693 243.254,234.079 241.833 C 240.974 234.765,240.611 232.598,232.333 231.419 C 231.279 231.269,229.567 230.963,228.528 230.740 C 227.490 230.516,226.545 230.333,226.429 230.333 C 226.314 230.333,225.401 231.060,224.401 231.948 M124.240 233.849 C 124.189 233.932,124.339 234.000,124.573 234.000 C 125.084 234.000,125.125 233.905,124.667 233.785 C 124.484 233.737,124.292 233.766,124.240 233.849 M207.708 250.448 C 207.869 250.490,208.131 250.490,208.292 250.448 C 208.452 250.406,208.321 250.372,208.000 250.372 C 207.679 250.372,207.548 250.406,207.708 250.448 M205.667 252.491 C 205.529 252.662,204.852 253.503,204.161 254.359 C 202.229 256.756,200.562 259.229,198.812 262.296 C 197.278 264.985,193.981 272.203,194.191 272.413 C 194.298 272.520,197.951 272.550,198.121 272.445 C 198.205 272.393,198.718 272.350,199.262 272.350 C 200.551 272.349,203.716 271.857,205.667 271.354 C 206.234 271.208,207.032 270.892,208.112 270.388 C 208.403 270.252,208.757 270.124,208.899 270.103 C 209.041 270.082,209.215 270.001,209.287 269.923 C 209.359 269.844,209.305 269.843,209.167 269.922 C 208.950 270.045,208.948 270.026,209.149 269.778 C 209.276 269.621,209.418 269.529,209.463 269.574 C 209.507 269.619,209.689 269.472,209.865 269.248 C 210.041 269.023,210.238 268.857,210.302 268.878 C 210.366 268.899,210.706 268.617,211.058 268.250 C 211.409 267.883,211.637 267.696,211.565 267.833 C 211.035 268.845,218.693 260.992,220.664 258.503 L 221.188 257.842 220.399 256.998 C 218.237 254.687,216.210 253.901,209.455 252.754 C 205.420 252.069,205.974 252.108,205.667 252.491 " stroke="none" fill="#ab96ae" fill-rule="evenodd"></path><path id="path3" d="M45.833 67.829 C 40.468 68.169,40.167 68.247,39.643 69.430 C 38.993 70.901,38.885 75.981,39.437 79.208 L 39.544 79.833 41.647 79.834 C 49.373 79.837,64.201 81.231,74.583 82.929 L 76.083 83.174 76.417 82.727 C 76.600 82.481,77.146 81.748,77.630 81.098 C 79.601 78.450,82.771 75.385,85.724 73.271 C 86.445 72.756,86.932 72.306,86.808 72.270 C 86.186 72.087,80.535 70.875,77.417 70.255 C 76.339 70.041,73.307 69.535,70.917 69.171 C 68.258 68.766,64.172 68.278,61.083 67.997 C 58.541 67.766,48.572 67.656,45.833 67.829 M142.881 92.875 C 142.928 93.081,143.091 93.700,143.244 94.250 C 144.019 97.048,144.339 99.661,144.344 103.253 L 144.349 106.423 146.550 107.753 C 149.493 109.532,154.297 112.751,156.717 114.565 C 157.798 115.376,158.719 116.004,158.762 115.961 C 159.437 115.285,159.661 104.483,159.059 101.612 L 158.750 100.141 157.000 99.241 C 155.318 98.376,147.126 94.380,145.750 93.754 C 145.383 93.587,144.639 93.237,144.095 92.975 C 142.904 92.402,142.769 92.391,142.881 92.875 M294.417 94.179 C 290.181 94.517,285.339 95.289,282.384 96.098 C 281.852 96.243,281.192 96.421,280.917 96.492 C 279.625 96.828,276.021 98.101,274.710 98.685 C 274.322 98.858,273.974 99.000,273.937 99.000 C 273.034 99.000,265.278 103.467,262.422 105.632 C 258.449 108.644,251.618 115.198,252.948 114.723 C 253.114 114.664,253.327 114.556,253.421 114.485 C 254.487 113.673,266.792 110.175,272.667 109.015 C 307.724 102.087,336.432 110.602,354.786 133.371 C 355.498 134.254,356.107 134.948,356.140 134.915 C 356.441 134.615,357.163 128.503,357.165 126.250 C 357.168 122.552,356.428 120.019,354.730 117.905 C 346.511 107.674,330.757 99.022,314.250 95.673 C 312.175 95.252,311.711 95.166,310.250 94.937 C 305.032 94.117,298.878 93.823,294.417 94.179 M118.872 107.833 C 118.872 108.154,118.906 108.285,118.948 108.125 C 118.990 107.965,118.990 107.702,118.948 107.542 C 118.906 107.381,118.872 107.513,118.872 107.833 M60.877 116.786 C 61.131 116.825,61.506 116.824,61.711 116.784 C 61.916 116.744,61.708 116.713,61.250 116.714 C 60.792 116.716,60.624 116.748,60.877 116.786 M69.711 116.786 C 69.964 116.825,70.339 116.824,70.544 116.784 C 70.749 116.744,70.542 116.713,70.083 116.714 C 69.625 116.716,69.457 116.748,69.711 116.786 M308.826 126.208 C 309.517 126.944,309.667 127.077,309.667 126.951 C 309.667 126.925,309.310 126.568,308.875 126.160 L 308.083 125.417 308.826 126.208 M285.083 158.667 L 284.583 158.794 285.032 158.814 C 285.279 158.824,285.527 158.758,285.583 158.667 C 285.640 158.575,285.663 158.509,285.635 158.520 C 285.607 158.531,285.358 158.597,285.083 158.667 M103.833 196.219 C 103.833 196.248,104.077 196.491,104.375 196.760 L 104.917 197.250 104.427 196.708 C 103.971 196.203,103.833 196.090,103.833 196.219 M99.212 197.333 C 99.212 197.746,99.245 197.915,99.284 197.708 C 99.324 197.502,99.324 197.165,99.284 196.958 C 99.245 196.752,99.212 196.921,99.212 197.333 M99.050 199.667 C 99.050 200.171,99.081 200.377,99.119 200.125 C 99.158 199.873,99.158 199.460,99.119 199.208 C 99.081 198.956,99.050 199.162,99.050 199.667 M107.000 199.417 C 107.311 199.737,107.603 200.000,107.649 200.000 C 107.695 200.000,107.478 199.737,107.167 199.417 C 106.856 199.096,106.564 198.833,106.518 198.833 C 106.472 198.833,106.689 199.096,107.000 199.417 M98.705 203.333 C 98.705 203.654,98.740 203.785,98.782 203.625 C 98.823 203.465,98.823 203.202,98.782 203.042 C 98.740 202.881,98.705 203.012,98.705 203.333 M98.539 204.833 C 98.539 205.154,98.573 205.285,98.615 205.125 C 98.657 204.965,98.657 204.702,98.615 204.542 C 98.573 204.381,98.539 204.512,98.539 204.833 M98.205 207.500 C 98.205 207.821,98.240 207.952,98.282 207.792 C 98.323 207.631,98.323 207.369,98.282 207.208 C 98.240 207.048,98.205 207.179,98.205 207.500 M97.872 210.000 C 97.872 210.321,97.906 210.452,97.948 210.292 C 97.990 210.131,97.990 209.869,97.948 209.708 C 97.906 209.548,97.872 209.679,97.872 210.000 M104.527 229.757 C 104.248 230.370,104.301 230.501,104.603 229.944 C 104.744 229.683,104.828 229.439,104.790 229.401 C 104.752 229.363,104.634 229.523,104.527 229.757 M223.914 232.263 L 222.583 233.527 223.958 232.315 C 225.209 231.213,225.424 231.000,225.289 231.000 C 225.264 231.000,224.645 231.568,223.914 232.263 M221.282 234.635 C 220.852 235.071,220.500 235.471,220.500 235.524 C 220.500 235.576,220.876 235.243,221.335 234.784 C 221.795 234.324,222.146 233.924,222.117 233.895 C 222.087 233.865,221.712 234.198,221.282 234.635 M219.158 236.958 C 217.755 238.448,217.268 239.000,217.357 239.000 C 217.406 239.000,218.026 238.362,218.736 237.583 C 219.445 236.804,219.998 236.167,219.965 236.167 C 219.931 236.167,219.569 236.523,219.158 236.958 M216.494 240.007 C 216.108 240.469,215.819 240.871,215.854 240.901 C 215.888 240.931,216.239 240.553,216.633 240.061 C 217.539 238.929,217.432 238.887,216.494 240.007 M101.224 243.083 C 101.224 243.817,101.254 244.096,101.289 243.704 C 101.324 243.312,101.324 242.712,101.288 242.371 C 101.252 242.029,101.223 242.350,101.224 243.083 M214.573 242.445 C 214.316 242.782,214.191 243.004,214.295 242.940 C 214.509 242.808,215.230 241.833,215.114 241.833 C 215.073 241.833,214.830 242.109,214.573 242.445 M213.667 243.667 C 213.471 243.942,213.348 244.167,213.394 244.167 C 213.440 244.167,213.638 243.942,213.833 243.667 C 214.029 243.392,214.152 243.167,214.106 243.167 C 214.060 243.167,213.862 243.392,213.667 243.667 M212.370 245.542 C 211.761 246.440,211.630 246.667,211.717 246.667 C 211.755 246.667,212.060 246.254,212.395 245.750 C 212.730 245.246,212.969 244.833,212.926 244.833 C 212.884 244.833,212.634 245.152,212.370 245.542 M211.064 247.542 C 210.490 248.515,210.452 248.598,210.745 248.250 C 211.083 247.847,211.375 247.333,211.266 247.333 C 211.222 247.333,211.131 247.427,211.064 247.542 M205.262 252.818 L 204.774 253.417 205.337 252.880 C 205.646 252.585,205.866 252.316,205.825 252.281 C 205.784 252.247,205.530 252.488,205.262 252.818 M204.000 254.333 C 203.710 254.700,203.509 255.000,203.555 255.000 C 203.601 255.000,203.876 254.700,204.167 254.333 C 204.457 253.967,204.657 253.667,204.611 253.667 C 204.566 253.667,204.290 253.967,204.000 254.333 M201.833 257.250 C 201.550 257.662,201.355 258.000,201.401 258.000 C 201.446 258.000,201.716 257.662,202.000 257.250 C 202.284 256.837,202.479 256.500,202.433 256.500 C 202.387 256.500,202.117 256.837,201.833 257.250 M197.583 264.333 C 197.260 264.975,197.033 265.500,197.079 265.500 C 197.125 265.500,197.427 264.975,197.750 264.333 C 198.073 263.692,198.300 263.167,198.254 263.167 C 198.208 263.167,197.906 263.692,197.583 264.333 M196.360 266.757 C 196.081 267.370,196.134 267.501,196.436 266.944 C 196.577 266.683,196.662 266.439,196.623 266.401 C 196.585 266.363,196.467 266.523,196.360 266.757 M211.073 268.208 L 210.583 268.750 211.125 268.260 C 211.630 267.804,211.743 267.667,211.615 267.667 C 211.586 267.667,211.342 267.910,211.073 268.208 M195.694 268.257 C 195.414 268.870,195.468 269.001,195.770 268.444 C 195.911 268.183,195.995 267.939,195.957 267.901 C 195.919 267.863,195.800 268.023,195.694 268.257 M209.163 269.754 C 209.043 269.898,208.639 270.155,208.264 270.324 C 205.963 271.364,205.565 271.473,201.583 272.154 L 200.750 272.296 201.468 272.315 C 201.863 272.325,202.538 272.256,202.968 272.162 C 203.398 272.068,204.125 271.908,204.583 271.808 C 207.008 271.276,209.860 269.972,209.464 269.575 C 209.418 269.529,209.283 269.610,209.163 269.754 M194.003 272.375 C 194.000 272.638,194.190 272.663,195.958 272.631 L 197.917 272.596 196.089 272.542 C 194.891 272.507,194.218 272.418,194.134 272.286 C 194.045 272.146,194.004 272.174,194.003 272.375 M198.083 272.500 C 198.021 272.601,198.248 272.667,198.657 272.667 C 199.029 272.667,199.333 272.592,199.333 272.500 C 199.333 272.408,199.075 272.333,198.760 272.333 C 198.444 272.333,198.140 272.408,198.083 272.500 M199.794 272.451 C 200.001 272.491,200.301 272.490,200.460 272.448 C 200.620 272.406,200.450 272.374,200.083 272.375 C 199.717 272.377,199.586 272.411,199.794 272.451 " stroke="none" fill="#b3abc3" fill-rule="evenodd"></path><path id="path4" d="M53.044 67.620 C 53.297 67.658,53.672 67.657,53.877 67.617 C 54.082 67.578,53.875 67.546,53.417 67.548 C 52.958 67.549,52.791 67.581,53.044 67.620 M79.305 87.781 C 78.214 89.429,75.833 95.042,75.833 95.965 C 75.833 96.061,76.408 96.183,77.125 96.239 C 81.068 96.548,85.585 97.287,87.864 97.997 C 88.687 98.253,88.833 98.262,88.833 98.055 C 88.833 96.352,93.083 90.678,95.871 88.658 L 96.499 88.204 95.956 88.102 C 93.974 87.730,88.479 87.310,84.414 87.220 L 79.744 87.117 79.305 87.781 M108.750 95.825 C 101.309 97.068,97.052 105.291,100.333 112.083 C 103.970 119.614,113.573 120.955,119.307 114.732 L 120.492 113.447 121.287 114.191 C 122.281 115.121,124.633 116.710,126.544 117.743 C 127.345 118.176,128.000 118.575,128.000 118.629 C 128.000 119.318,124.125 123.256,122.047 124.677 L 120.706 125.595 123.359 126.467 C 125.929 127.312,129.709 128.665,131.417 129.351 L 132.250 129.686 133.528 128.363 C 135.766 126.044,138.291 122.429,137.797 122.249 C 137.679 122.206,136.871 121.953,136.000 121.686 C 134.366 121.186,133.799 120.982,131.667 120.131 C 130.419 119.633,128.299 118.688,128.195 118.584 C 128.164 118.553,128.523 117.817,128.992 116.947 C 130.317 114.489,131.249 111.636,131.567 109.063 L 131.672 108.209 131.128 108.095 C 128.695 107.584,127.555 107.444,125.083 107.354 L 122.250 107.250 122.210 106.583 C 121.805 99.767,115.468 94.702,108.750 95.825 M130.898 100.094 C 131.397 101.396,131.930 105.692,131.776 107.171 L 131.673 108.155 132.295 108.325 C 135.562 109.216,138.238 110.099,140.333 110.979 C 142.204 111.764,142.106 111.642,141.855 112.865 C 141.464 114.775,140.354 117.884,139.269 120.109 L 138.199 122.301 138.641 122.387 C 139.209 122.499,139.126 122.609,140.385 120.083 C 141.651 117.544,143.167 113.415,143.167 112.506 C 143.167 112.360,142.942 112.155,142.667 112.051 C 142.086 111.832,142.081 111.785,142.409 109.763 C 142.698 107.981,142.904 108.344,140.536 106.456 C 135.964 102.812,130.576 99.256,130.898 100.094 M113.695 100.676 C 118.021 102.134,120.205 107.020,118.290 110.958 C 115.209 117.294,106.224 116.700,104.161 110.024 C 102.397 104.318,108.051 98.775,113.695 100.676 M74.568 106.860 C 74.613 107.075,74.695 107.850,74.750 108.583 C 74.894 110.515,75.381 112.869,76.180 115.500 C 76.675 117.129,76.493 117.028,79.360 117.273 C 82.661 117.556,86.050 117.934,88.667 118.311 C 91.110 118.663,90.963 118.698,90.447 117.882 C 88.704 115.120,87.558 111.512,87.235 107.770 L 87.136 106.624 86.276 106.731 C 83.507 107.074,77.041 106.978,74.951 106.563 C 74.534 106.480,74.495 106.510,74.568 106.860 M351.667 114.417 C 351.978 114.737,352.270 115.000,352.315 115.000 C 352.361 115.000,352.144 114.737,351.833 114.417 C 351.522 114.096,351.230 113.833,351.185 113.833 C 351.139 113.833,351.356 114.096,351.667 114.417 M291.707 124.753 C 284.383 125.898,278.649 131.387,277.258 138.583 C 277.134 139.225,277.044 139.755,277.058 139.762 C 277.072 139.768,277.646 139.893,278.333 140.038 C 279.861 140.362,281.283 140.885,282.050 141.405 L 282.624 141.794 282.709 140.772 C 283.492 131.364,297.192 128.758,301.506 137.197 C 302.055 138.271,302.092 138.306,302.579 138.197 C 302.856 138.134,304.171 138.086,305.500 138.089 C 307.905 138.094,308.064 138.119,310.939 138.929 C 311.293 139.028,311.294 139.022,311.058 138.001 C 309.037 129.253,300.464 123.385,291.707 124.753 M74.088 127.175 C 74.210 127.372,76.924 130.225,79.083 132.425 C 80.929 134.305,85.892 139.561,88.667 142.574 C 89.263 143.221,90.125 144.140,90.583 144.616 C 91.042 145.092,91.604 145.696,91.833 145.957 C 92.063 146.219,92.962 147.216,93.833 148.173 C 95.761 150.292,96.464 151.073,97.129 151.833 C 97.886 152.699,97.952 152.334,97.225 151.308 C 96.877 150.818,96.550 150.379,96.498 150.333 C 96.445 150.287,96.065 149.762,95.652 149.167 C 95.240 148.571,94.779 147.933,94.627 147.750 C 94.476 147.567,93.660 146.554,92.814 145.500 C 91.968 144.446,91.232 143.546,91.179 143.500 C 91.127 143.454,90.598 142.854,90.005 142.167 C 88.368 140.270,87.176 139.010,84.167 135.994 C 80.999 132.819,79.678 131.579,77.000 129.265 C 75.220 127.727,73.799 126.707,74.088 127.175 M81.167 127.254 C 81.167 127.303,81.485 127.665,81.875 128.060 C 82.265 128.455,83.183 129.413,83.917 130.188 C 84.650 130.964,86.420 132.833,87.851 134.341 C 89.281 135.849,90.856 137.530,91.351 138.075 C 91.845 138.621,92.587 139.411,93.000 139.830 C 93.412 140.250,94.350 141.266,95.083 142.088 C 95.816 142.911,96.641 143.810,96.916 144.086 C 97.191 144.363,97.711 144.926,98.071 145.336 C 98.430 145.747,99.337 146.758,100.085 147.583 C 100.834 148.408,101.963 149.683,102.594 150.417 C 103.225 151.150,103.883 151.900,104.055 152.083 C 104.227 152.267,104.481 152.585,104.620 152.792 C 104.868 153.161,105.167 153.293,105.167 153.034 C 105.167 152.961,105.055 152.755,104.918 152.576 C 104.781 152.397,104.110 151.462,103.428 150.500 C 102.745 149.537,102.124 148.675,102.047 148.583 C 101.970 148.492,101.684 148.118,101.412 147.753 C 101.139 147.388,100.794 146.938,100.643 146.753 C 100.493 146.568,99.860 145.779,99.236 145.000 C 98.612 144.221,98.060 143.546,98.009 143.500 C 97.958 143.454,97.618 143.042,97.253 142.583 C 96.889 142.125,96.514 141.666,96.420 141.564 C 96.327 141.461,95.688 140.748,95.000 139.980 C 92.444 137.123,88.321 132.972,86.333 131.253 C 85.829 130.817,84.941 130.040,84.359 129.526 C 83.778 129.013,83.140 128.483,82.943 128.348 C 82.745 128.213,82.546 128.057,82.500 128.002 C 82.196 127.634,81.167 127.056,81.167 127.254 M67.000 127.554 C 67.000 127.583,70.959 131.577,75.797 136.429 C 80.635 141.280,85.609 146.337,86.851 147.667 C 88.092 148.996,89.458 150.458,89.886 150.917 C 90.314 151.375,90.665 151.668,90.666 151.568 C 90.667 151.408,89.353 149.442,88.744 148.691 C 88.622 148.540,88.101 147.892,87.587 147.250 C 86.249 145.582,85.626 144.819,85.425 144.602 C 85.329 144.498,84.800 143.893,84.250 143.258 C 82.369 141.085,78.156 136.785,75.892 134.727 C 75.604 134.465,75.042 133.950,74.643 133.583 C 74.244 133.217,73.655 132.704,73.334 132.445 C 73.013 132.186,72.375 131.648,71.917 131.250 C 71.458 130.853,70.558 130.105,69.917 129.589 C 69.275 129.073,68.637 128.560,68.500 128.448 C 67.688 127.790,67.000 127.379,67.000 127.554 M52.833 127.823 C 52.833 127.921,52.890 128.001,52.958 128.003 C 53.027 128.005,53.465 128.361,53.932 128.795 C 54.399 129.228,55.255 129.996,55.835 130.500 C 56.414 131.004,57.166 131.679,57.505 132.000 C 57.844 132.321,58.590 132.996,59.162 133.500 C 60.889 135.020,60.967 135.091,62.138 136.190 C 62.759 136.773,64.114 138.037,65.150 139.000 C 66.185 139.962,68.609 142.310,70.536 144.216 C 72.464 146.122,74.080 147.642,74.128 147.594 C 74.224 147.499,73.529 146.440,72.997 145.868 C 72.815 145.673,72.667 145.436,72.667 145.340 C 72.667 145.245,72.609 145.167,72.539 145.167 C 72.468 145.167,72.299 144.989,72.164 144.772 C 71.929 144.395,71.381 143.718,69.936 142.013 C 68.068 139.810,64.062 135.899,61.406 133.688 C 59.234 131.880,59.176 131.833,59.083 131.833 C 59.010 131.833,58.399 131.341,57.936 130.910 C 57.834 130.814,56.962 130.214,56.000 129.576 C 55.038 128.939,54.212 128.379,54.167 128.333 C 54.097 128.263,53.727 128.072,52.958 127.706 C 52.890 127.674,52.833 127.726,52.833 127.823 M61.835 129.378 C 62.707 130.224,64.766 132.192,66.410 133.750 C 68.054 135.308,72.384 139.574,76.033 143.229 C 79.682 146.884,82.667 149.826,82.667 149.767 C 82.667 149.459,79.415 145.044,78.059 143.510 C 77.851 143.275,77.322 142.672,76.882 142.168 C 75.324 140.384,73.801 138.807,71.812 136.917 C 69.993 135.188,69.217 134.501,66.916 132.583 C 66.366 132.125,65.879 131.712,65.833 131.666 C 65.787 131.619,65.450 131.361,65.083 131.091 C 64.717 130.822,64.379 130.555,64.333 130.498 C 64.287 130.441,63.875 130.141,63.417 129.830 C 62.958 129.520,62.484 129.168,62.363 129.049 C 61.942 128.636,60.689 127.833,60.470 127.836 C 60.349 127.838,60.963 128.532,61.835 129.378 M89.002 128.292 C 89.003 128.360,89.584 129.023,90.294 129.764 C 91.720 131.254,92.597 132.203,94.583 134.404 C 95.317 135.217,96.067 136.042,96.250 136.238 C 96.433 136.434,96.916 136.967,97.323 137.422 C 97.729 137.877,98.715 138.962,99.513 139.833 C 100.311 140.704,101.176 141.679,101.437 142.000 C 101.697 142.321,102.027 142.696,102.169 142.833 C 102.312 142.971,102.983 143.721,103.660 144.500 C 104.338 145.279,104.936 145.954,104.990 146.000 C 105.044 146.046,105.537 146.608,106.086 147.250 C 106.634 147.892,107.196 148.529,107.333 148.667 C 107.471 148.804,107.957 149.367,108.413 149.917 C 108.869 150.467,109.282 150.954,109.330 151.000 C 109.377 151.046,109.791 151.533,110.248 152.083 C 110.705 152.633,111.155 153.165,111.248 153.265 C 111.341 153.365,111.597 153.684,111.817 153.974 C 112.037 154.263,112.287 154.500,112.374 154.500 C 112.524 154.500,111.806 153.145,111.428 152.714 C 111.087 152.325,110.905 152.076,110.179 151.000 C 108.732 148.855,105.689 144.965,102.853 141.636 C 100.163 138.477,95.661 133.845,92.596 131.083 C 91.783 130.350,91.034 129.674,90.933 129.582 C 89.711 128.459,88.997 127.982,89.002 128.292 M46.667 128.798 C 46.667 128.864,46.943 129.143,47.281 129.418 C 47.619 129.692,48.351 130.292,48.907 130.750 C 49.464 131.208,50.293 131.881,50.751 132.244 C 51.209 132.608,51.621 132.947,51.667 132.998 C 51.712 133.049,52.200 133.464,52.750 133.920 C 53.300 134.377,53.788 134.789,53.833 134.837 C 53.879 134.885,54.364 135.297,54.911 135.754 C 55.457 136.210,56.132 136.798,56.411 137.061 C 56.689 137.324,57.399 137.961,57.989 138.478 C 58.578 138.994,59.337 139.679,59.675 140.000 C 60.012 140.321,60.767 141.024,61.353 141.563 C 61.938 142.101,63.100 143.208,63.935 144.021 C 65.398 145.447,65.667 145.655,65.667 145.365 C 65.667 145.218,64.964 144.327,64.375 143.729 C 64.169 143.520,64.000 143.303,64.000 143.248 C 64.000 143.068,60.942 139.784,59.000 137.878 C 56.911 135.828,55.324 134.438,53.417 132.987 C 51.176 131.283,50.525 130.841,48.417 129.592 C 47.121 128.824,46.667 128.618,46.667 128.798 M97.500 130.081 C 97.500 130.141,98.494 131.286,99.708 132.626 C 100.923 133.966,102.254 135.441,102.667 135.904 C 103.079 136.367,103.567 136.908,103.750 137.105 C 103.933 137.302,104.458 137.898,104.917 138.429 C 105.375 138.960,106.200 139.889,106.750 140.495 C 107.619 141.452,108.374 142.314,109.632 143.788 C 109.807 143.992,110.297 144.555,110.721 145.038 C 111.146 145.521,111.652 146.104,111.846 146.333 C 112.379 146.962,113.727 148.526,113.917 148.735 C 114.008 148.836,114.457 149.368,114.913 149.918 C 115.369 150.467,115.784 150.954,115.834 151.000 C 115.907 151.066,118.374 154.050,119.279 155.167 C 119.391 155.304,119.640 155.604,119.833 155.833 L 120.184 156.250 120.070 155.833 C 120.007 155.604,119.891 155.392,119.811 155.361 C 119.732 155.331,119.667 155.234,119.667 155.147 C 119.667 155.060,119.235 154.385,118.708 153.646 C 118.181 152.907,117.570 152.029,117.350 151.693 C 117.130 151.358,116.901 151.046,116.842 151.000 C 116.782 150.954,116.554 150.654,116.333 150.333 C 116.113 150.012,115.891 149.712,115.840 149.667 C 115.790 149.621,115.527 149.283,115.257 148.917 C 114.697 148.155,111.649 144.293,111.509 144.167 C 111.458 144.121,111.044 143.633,110.588 143.083 C 110.132 142.533,109.644 141.971,109.504 141.833 C 109.364 141.696,108.800 141.058,108.250 140.417 C 105.556 137.274,97.500 129.528,97.500 130.081 M106.000 132.426 C 106.000 132.560,107.380 134.180,108.686 135.580 C 109.201 136.132,109.876 136.883,110.185 137.250 C 110.494 137.617,110.862 138.029,111.002 138.167 C 111.142 138.304,111.705 138.940,112.253 139.579 C 112.801 140.219,113.400 140.900,113.583 141.093 C 113.767 141.287,114.265 141.851,114.692 142.347 C 115.674 143.491,116.085 143.965,116.609 144.556 C 116.840 144.816,117.451 145.529,117.969 146.139 C 119.125 147.505,119.582 148.039,120.338 148.908 C 120.662 149.279,121.222 149.958,121.583 150.417 C 121.944 150.875,122.280 151.287,122.331 151.333 C 122.382 151.379,122.797 151.867,123.254 152.417 C 123.710 152.967,124.121 153.454,124.167 153.500 C 124.212 153.546,124.547 153.958,124.911 154.417 C 125.275 154.875,125.613 155.287,125.662 155.333 C 125.711 155.379,125.975 155.717,126.248 156.083 C 126.521 156.450,126.874 156.900,127.032 157.083 C 127.190 157.267,127.433 157.567,127.571 157.750 C 128.155 158.524,127.797 157.530,127.125 156.512 C 122.497 149.499,119.143 145.180,114.583 140.362 C 113.655 139.381,109.209 134.959,108.773 134.583 C 106.293 132.445,106.000 132.217,106.000 132.426 M115.000 134.760 C 115.000 134.875,116.203 136.346,116.917 137.104 C 117.100 137.299,117.362 137.599,117.500 137.772 C 118.109 138.537,119.439 140.106,119.673 140.333 C 119.813 140.471,120.225 140.958,120.589 141.417 C 120.952 141.875,121.362 142.362,121.500 142.500 C 121.638 142.637,122.049 143.125,122.412 143.583 C 122.775 144.042,123.113 144.454,123.163 144.500 C 123.214 144.546,123.586 144.996,123.991 145.500 C 124.396 146.004,124.808 146.492,124.906 146.583 C 125.003 146.675,125.833 147.688,126.750 148.833 C 127.666 149.979,128.454 150.954,128.500 151.000 C 128.546 151.046,128.881 151.458,129.244 151.917 C 129.608 152.375,129.946 152.787,129.995 152.833 C 130.045 152.879,130.306 153.217,130.575 153.583 C 130.845 153.950,131.109 154.287,131.163 154.333 C 131.289 154.442,133.450 157.282,134.204 158.330 C 134.668 158.974,134.730 158.594,134.289 157.806 C 133.596 156.566,130.881 152.376,130.545 152.029 C 130.427 151.907,130.244 151.644,130.138 151.445 C 129.912 151.023,126.845 146.868,126.487 146.500 C 126.353 146.362,125.961 145.862,125.616 145.387 C 125.272 144.913,124.936 144.500,124.870 144.470 C 124.804 144.441,124.414 144.004,124.004 143.500 C 121.453 140.364,115.000 134.100,115.000 134.760 M290.061 134.982 C 284.740 136.797,283.147 143.596,287.113 147.563 C 290.092 150.541,294.838 150.585,297.792 147.661 C 298.273 147.184,298.667 146.728,298.667 146.647 C 298.667 146.334,299.063 146.529,299.880 147.244 C 300.866 148.106,300.894 148.096,301.629 146.630 C 302.692 144.510,303.017 141.727,302.448 139.601 C 302.085 138.240,302.038 138.216,300.759 138.728 C 299.410 139.268,299.571 139.292,299.163 138.493 C 297.656 135.540,293.324 133.869,290.061 134.982 M123.167 136.630 C 123.167 136.714,123.298 136.935,123.458 137.122 C 123.619 137.309,123.950 137.715,124.194 138.023 C 124.438 138.331,124.802 138.771,125.002 139.000 C 125.202 139.229,125.603 139.708,125.892 140.064 C 126.180 140.421,126.567 140.883,126.750 141.093 C 127.187 141.592,127.462 141.929,128.167 142.831 C 128.487 143.242,128.865 143.694,129.006 143.836 C 129.147 143.979,129.482 144.393,129.752 144.756 C 130.022 145.119,130.581 145.827,130.996 146.328 C 131.863 147.375,131.784 147.277,133.347 149.250 C 134.000 150.075,134.658 150.901,134.809 151.087 C 134.960 151.272,135.307 151.722,135.581 152.087 C 136.119 152.806,136.355 153.104,137.011 153.899 C 137.246 154.184,137.617 154.679,137.836 155.000 C 138.055 155.321,138.279 155.621,138.334 155.667 C 138.389 155.712,138.655 156.049,138.925 156.413 C 139.196 156.778,139.508 157.191,139.619 157.330 C 140.108 157.942,140.878 158.983,141.440 159.792 C 142.262 160.976,142.484 160.900,141.806 159.667 C 141.504 159.117,141.199 158.667,141.128 158.667 C 141.058 158.667,141.000 158.599,141.000 158.517 C 141.000 158.243,138.376 154.162,136.756 151.917 C 136.077 150.975,134.314 148.584,134.115 148.333 C 133.207 147.192,132.570 146.403,132.500 146.333 C 132.454 146.287,132.119 145.875,131.756 145.417 C 131.392 144.958,131.055 144.546,131.006 144.500 C 130.957 144.454,130.396 143.817,129.760 143.083 C 127.339 140.291,123.167 136.208,123.167 136.630 M293.657 138.328 C 298.007 140.548,296.600 146.864,291.750 146.887 C 287.316 146.908,285.541 141.441,289.100 138.726 C 290.295 137.814,292.305 137.639,293.657 138.328 M131.333 138.489 C 131.333 138.658,132.051 139.674,132.583 140.258 C 132.675 140.359,132.951 140.698,133.196 141.012 C 133.441 141.326,133.966 141.987,134.363 142.480 C 134.759 142.973,135.253 143.610,135.459 143.896 C 135.666 144.183,135.930 144.529,136.046 144.667 C 136.161 144.804,136.479 145.217,136.753 145.583 C 137.026 145.950,137.334 146.339,137.437 146.449 C 137.539 146.558,138.851 148.283,140.351 150.282 C 141.851 152.281,143.120 153.954,143.170 154.000 C 143.220 154.046,143.629 154.608,144.079 155.250 C 144.529 155.892,144.944 156.454,145.001 156.500 C 145.058 156.546,145.363 156.949,145.678 157.395 C 145.992 157.841,146.400 158.413,146.583 158.665 C 146.767 158.917,147.242 159.589,147.640 160.158 C 148.038 160.727,148.403 161.153,148.451 161.105 C 148.535 161.021,147.576 159.196,146.995 158.333 C 146.840 158.104,146.049 156.867,145.236 155.583 C 144.423 154.300,143.456 152.820,143.088 152.295 C 141.649 150.247,139.105 146.746,138.998 146.667 C 138.936 146.621,138.616 146.228,138.287 145.793 C 136.166 142.994,131.333 137.918,131.333 138.489 M311.404 141.812 C 311.389 144.927,311.053 146.515,309.874 149.042 C 309.004 150.908,309.057 150.884,306.830 150.416 C 304.648 149.957,303.112 149.363,301.388 148.311 L 300.859 147.989 300.427 148.555 C 297.636 152.214,291.610 153.176,287.384 150.637 C 285.775 149.670,283.319 146.675,283.331 145.694 C 283.332 145.554,283.136 145.636,282.810 145.911 C 281.840 146.727,279.974 147.535,278.528 147.765 C 278.131 147.829,277.877 147.926,277.964 147.982 C 278.051 148.038,278.386 148.646,278.707 149.333 C 280.609 153.394,284.886 157.086,289.003 158.220 C 289.651 158.398,291.119 158.497,294.046 158.560 L 298.176 158.649 299.664 158.159 C 303.093 157.029,305.905 154.965,308.171 151.917 C 309.138 150.617,309.026 150.672,310.684 150.669 L 312.118 150.667 312.794 149.208 C 313.916 146.785,314.534 144.489,314.721 142.053 L 314.800 141.022 314.188 140.617 C 313.526 140.179,312.378 139.572,311.786 139.347 L 311.417 139.207 311.404 141.812 M286.927 172.531 C 287.196 172.822,287.567 173.222,287.750 173.420 C 287.933 173.617,288.458 174.218,288.917 174.755 C 289.375 175.292,290.097 176.111,290.522 176.574 C 290.946 177.038,291.569 177.754,291.906 178.167 C 292.243 178.579,292.646 179.030,292.801 179.169 C 292.956 179.308,293.454 179.871,293.907 180.419 C 294.361 180.968,294.901 181.604,295.109 181.833 C 296.321 183.172,297.112 184.089,297.324 184.398 C 297.456 184.592,297.684 184.862,297.830 185.000 C 297.976 185.137,298.392 185.625,298.755 186.083 C 299.118 186.542,299.528 187.029,299.667 187.167 C 299.805 187.304,300.215 187.792,300.578 188.250 C 300.942 188.708,301.279 189.121,301.328 189.167 C 301.377 189.213,301.790 189.700,302.246 190.250 C 302.703 190.800,303.119 191.287,303.172 191.333 C 303.225 191.379,303.527 191.758,303.843 192.176 C 304.158 192.593,304.697 193.268,305.040 193.676 C 305.748 194.516,307.211 196.344,307.833 197.164 C 308.302 197.782,309.720 199.575,310.141 200.083 C 310.293 200.267,311.048 201.279,311.818 202.333 C 312.588 203.387,313.282 204.275,313.359 204.306 C 313.437 204.336,313.500 204.459,313.500 204.579 C 313.500 204.699,313.612 204.841,313.750 204.894 C 313.887 204.946,313.999 204.936,313.997 204.870 C 313.989 204.566,311.047 199.598,310.372 198.750 C 310.299 198.658,310.057 198.283,309.834 197.917 C 309.611 197.550,309.351 197.159,309.256 197.047 C 308.763 196.470,308.667 196.339,308.667 196.250 C 308.667 196.196,308.590 196.062,308.497 195.951 C 308.403 195.841,307.559 194.730,306.622 193.483 C 305.029 191.365,304.388 190.548,303.318 189.267 C 303.081 188.983,302.744 188.575,302.568 188.361 C 302.393 188.147,302.111 187.809,301.942 187.611 C 300.762 186.229,300.038 185.396,299.750 185.091 C 299.567 184.896,298.782 184.028,298.007 183.160 C 296.559 181.542,289.269 174.193,287.715 172.786 C 286.737 171.900,286.178 171.719,286.927 172.531 M294.500 172.405 C 294.500 172.444,294.595 172.575,294.712 172.696 C 294.828 172.818,295.220 173.292,295.582 173.750 C 295.944 174.208,296.505 174.888,296.828 175.260 C 297.152 175.632,297.829 176.446,298.333 177.069 C 298.837 177.692,299.362 178.338,299.500 178.504 C 300.102 179.230,300.331 179.511,301.669 181.165 C 302.447 182.126,303.183 183.019,303.305 183.148 C 303.427 183.278,303.817 183.767,304.172 184.234 C 304.688 184.914,306.461 187.135,307.711 188.668 C 307.824 188.806,308.778 190.006,309.830 191.335 C 310.882 192.663,311.786 193.787,311.838 193.833 C 311.890 193.879,312.113 194.179,312.333 194.500 C 312.553 194.821,312.864 195.233,313.024 195.417 C 313.185 195.600,313.708 196.275,314.188 196.917 C 314.668 197.558,315.105 198.121,315.159 198.167 C 315.213 198.213,315.779 198.963,316.417 199.833 C 317.055 200.704,317.617 201.454,317.667 201.500 C 317.716 201.546,318.275 202.296,318.909 203.167 C 319.542 204.037,320.248 205.007,320.478 205.322 C 320.708 205.637,320.922 205.817,320.953 205.723 C 321.039 205.468,320.155 203.864,317.981 200.333 C 316.456 197.854,312.792 192.676,312.458 192.528 C 312.390 192.497,312.333 192.399,312.333 192.310 C 312.333 192.171,311.438 190.920,311.158 190.667 C 311.107 190.621,310.845 190.283,310.575 189.917 C 310.306 189.550,310.045 189.213,309.995 189.167 C 309.946 189.121,309.608 188.708,309.244 188.250 C 308.881 187.792,308.543 187.379,308.494 187.333 C 308.445 187.287,308.233 187.025,308.022 186.750 C 307.812 186.475,307.402 185.986,307.111 185.664 C 306.821 185.342,306.208 184.630,305.750 184.082 C 301.901 179.476,294.500 171.794,294.500 172.405 M302.167 172.794 C 302.167 172.873,302.298 173.084,302.458 173.263 C 302.619 173.443,303.199 174.113,303.747 174.753 C 304.295 175.393,304.984 176.179,305.278 176.500 C 305.572 176.821,306.061 177.398,306.365 177.783 C 306.668 178.167,307.854 179.583,309.000 180.928 C 310.146 182.273,311.293 183.645,311.549 183.978 C 311.806 184.311,312.143 184.734,312.299 184.918 C 312.456 185.102,312.958 185.702,313.417 186.251 C 313.875 186.801,314.288 187.287,314.334 187.333 C 314.381 187.379,315.618 188.917,317.084 190.750 C 318.550 192.583,319.792 194.121,319.843 194.167 C 319.894 194.213,320.044 194.406,320.176 194.597 C 320.309 194.788,320.694 195.276,321.034 195.681 C 321.373 196.085,322.105 197.017,322.662 197.750 C 323.218 198.483,324.440 200.083,325.378 201.304 C 326.316 202.526,327.327 203.876,327.626 204.304 C 327.924 204.733,328.281 205.217,328.419 205.379 C 328.558 205.542,328.889 205.976,329.155 206.344 C 330.192 207.775,329.745 206.615,328.409 204.406 C 327.637 203.129,326.951 201.971,326.886 201.833 C 326.820 201.696,326.709 201.508,326.639 201.417 C 326.569 201.325,325.859 200.275,325.062 199.083 C 323.738 197.106,321.065 193.368,320.831 193.167 C 320.778 193.121,320.555 192.821,320.336 192.500 C 320.117 192.179,319.572 191.467,319.125 190.917 C 318.678 190.367,318.223 189.804,318.114 189.665 C 317.744 189.194,316.260 187.418,315.671 186.741 C 315.348 186.369,314.865 185.807,314.597 185.491 C 310.466 180.608,302.167 172.131,302.167 172.794 M281.436 174.958 C 282.157 175.760,282.860 176.529,282.998 176.667 C 283.137 176.804,283.775 177.516,284.417 178.248 C 285.058 178.981,285.733 179.740,285.917 179.936 C 286.100 180.132,286.625 180.728,287.083 181.260 C 287.542 181.792,288.292 182.650,288.750 183.167 C 290.878 185.565,291.584 186.383,291.932 186.855 C 292.139 187.135,292.558 187.639,292.862 187.976 C 293.167 188.313,293.790 189.037,294.246 189.586 C 294.703 190.134,295.117 190.621,295.167 190.667 C 295.218 190.713,295.515 191.088,295.829 191.500 C 296.143 191.912,296.666 192.552,296.991 192.921 C 297.317 193.291,297.771 193.845,298.000 194.152 C 298.229 194.460,298.554 194.870,298.723 195.064 C 298.891 195.258,299.229 195.673,299.473 195.987 C 299.717 196.301,300.111 196.789,300.348 197.071 C 300.998 197.843,301.229 198.138,302.248 199.500 C 303.283 200.883,303.575 201.270,304.323 202.250 C 304.603 202.617,305.001 203.159,305.208 203.456 C 305.566 203.971,305.833 204.148,305.833 203.871 C 305.833 203.800,305.496 203.150,305.083 202.426 C 304.671 201.702,304.333 201.048,304.333 200.972 C 304.333 200.896,304.267 200.833,304.186 200.833 C 304.105 200.833,304.004 200.702,303.961 200.542 C 303.886 200.258,299.733 194.000,299.510 193.833 C 299.448 193.787,298.883 193.075,298.253 192.250 C 297.278 190.972,295.781 189.114,295.500 188.833 C 295.454 188.787,295.044 188.300,294.588 187.750 C 294.132 187.200,293.644 186.637,293.504 186.500 C 293.364 186.362,292.615 185.537,291.839 184.666 C 288.765 181.219,280.800 173.500,280.317 173.500 C 280.212 173.500,280.715 174.156,281.436 174.958 M310.500 173.988 C 310.500 174.073,310.669 174.280,310.875 174.448 C 311.081 174.616,311.700 175.278,312.250 175.919 C 312.800 176.559,313.487 177.346,313.778 177.667 C 314.068 177.987,314.480 178.475,314.693 178.750 C 314.906 179.025,315.231 179.409,315.415 179.603 C 315.599 179.797,315.990 180.247,316.282 180.603 C 316.575 180.959,316.988 181.450,317.199 181.693 C 317.410 181.937,317.821 182.425,318.111 182.777 C 318.400 183.129,318.776 183.567,318.944 183.750 C 319.112 183.933,320.110 185.133,321.160 186.417 C 322.210 187.700,323.112 188.787,323.164 188.833 C 323.216 188.879,323.515 189.254,323.829 189.667 C 324.143 190.079,324.666 190.725,324.991 191.103 C 325.484 191.673,326.229 192.591,327.614 194.333 C 327.723 194.471,328.307 195.221,328.912 196.000 C 329.516 196.779,330.103 197.529,330.216 197.667 C 330.330 197.804,330.646 198.217,330.919 198.583 C 331.191 198.950,331.453 199.287,331.499 199.333 C 331.545 199.379,332.032 200.017,332.581 200.750 C 333.130 201.483,333.619 202.121,333.668 202.167 C 333.717 202.213,334.275 202.963,334.909 203.833 C 335.542 204.704,336.238 205.660,336.455 205.958 C 336.673 206.256,336.928 206.500,337.022 206.500 C 337.117 206.500,337.049 206.256,336.872 205.958 C 336.695 205.660,335.998 204.479,335.322 203.333 C 334.646 202.188,334.045 201.213,333.988 201.167 C 333.930 201.121,333.792 200.909,333.680 200.697 C 333.568 200.484,332.504 198.909,331.317 197.197 C 329.412 194.449,328.625 193.378,326.447 190.565 C 325.705 189.607,323.953 187.434,323.842 187.333 C 323.792 187.287,323.301 186.725,322.752 186.083 C 322.204 185.442,321.716 184.879,321.669 184.833 C 321.622 184.787,320.871 183.964,320.000 183.004 C 315.891 178.473,310.500 173.356,310.500 173.988 M275.167 175.108 C 275.167 175.209,276.289 176.654,276.507 176.833 C 276.691 176.985,278.895 179.551,280.586 181.583 C 281.501 182.683,282.290 183.621,282.339 183.667 C 282.388 183.713,282.725 184.125,283.088 184.583 C 283.451 185.042,283.862 185.529,284.001 185.667 C 284.140 185.804,284.451 186.179,284.693 186.500 C 284.935 186.821,285.274 187.233,285.447 187.417 C 285.620 187.600,285.872 187.906,286.006 188.098 C 286.140 188.289,286.564 188.814,286.949 189.264 C 287.706 190.153,288.441 191.069,289.544 192.500 C 289.932 193.004,290.389 193.567,290.559 193.750 C 290.728 193.933,291.065 194.346,291.308 194.667 C 291.550 194.987,291.786 195.287,291.833 195.333 C 291.880 195.379,292.139 195.717,292.409 196.083 C 292.678 196.450,292.944 196.787,292.999 196.833 C 293.054 196.879,293.280 197.179,293.500 197.500 C 293.720 197.821,293.946 198.121,294.001 198.167 C 294.056 198.213,294.322 198.550,294.591 198.917 C 294.861 199.283,295.121 199.621,295.169 199.667 C 295.217 199.713,295.780 200.463,296.419 201.333 C 297.059 202.204,297.641 202.992,297.713 203.083 C 297.785 203.175,297.949 203.400,298.075 203.583 C 298.566 204.291,298.469 203.673,297.922 202.605 C 297.108 201.015,294.927 197.386,294.654 197.167 C 294.597 197.121,294.452 196.896,294.332 196.667 C 294.212 196.438,293.770 195.777,293.349 195.198 C 292.190 193.606,289.795 190.428,289.683 190.333 C 289.628 190.287,289.283 189.875,288.917 189.417 C 287.841 188.071,287.762 187.977,286.358 186.354 C 285.932 185.861,285.447 185.298,285.281 185.104 C 284.047 183.660,279.670 179.163,276.298 175.875 C 275.452 175.051,275.167 174.857,275.167 175.108 M319.987 176.438 C 320.177 176.679,320.689 177.267,321.124 177.744 C 321.560 178.221,322.292 179.046,322.750 179.576 C 323.208 180.107,323.660 180.626,323.755 180.729 C 324.419 181.456,329.621 187.665,330.283 188.520 C 331.202 189.707,332.740 191.586,332.926 191.750 C 333.030 191.842,333.292 192.179,333.508 192.500 C 333.724 192.821,333.942 193.121,333.992 193.167 C 334.042 193.213,334.381 193.625,334.744 194.083 C 335.108 194.542,335.449 194.954,335.502 195.000 C 335.556 195.046,335.781 195.346,336.003 195.667 C 336.225 195.987,336.614 196.475,336.869 196.750 C 337.123 197.025,337.332 197.301,337.333 197.363 C 337.333 197.425,337.431 197.575,337.550 197.696 C 337.670 197.818,338.213 198.517,338.758 199.250 C 339.303 199.983,339.787 200.621,339.833 200.667 C 339.880 200.713,340.139 201.050,340.409 201.417 C 340.678 201.783,340.945 202.121,341.002 202.167 C 341.059 202.213,341.359 202.625,341.670 203.083 C 341.980 203.542,342.332 204.016,342.452 204.138 C 342.571 204.260,342.749 204.509,342.847 204.693 C 342.946 204.876,343.131 205.152,343.260 205.305 C 343.388 205.458,343.601 205.733,343.733 205.916 C 344.154 206.501,344.220 206.043,343.811 205.386 C 343.319 204.598,343.233 204.453,342.433 203.054 C 341.742 201.846,341.492 201.461,338.934 197.667 C 336.874 194.611,335.370 192.494,334.563 191.511 C 334.369 191.275,333.627 190.339,332.250 188.593 C 331.975 188.244,331.487 187.658,331.167 187.289 C 330.846 186.921,330.450 186.461,330.288 186.268 C 327.424 182.862,320.423 176.000,319.813 176.000 C 319.719 176.000,319.798 176.197,319.987 176.438 M269.333 177.793 C 269.333 177.863,269.502 178.107,269.708 178.335 C 269.915 178.564,270.608 179.351,271.250 180.084 C 271.892 180.817,272.455 181.454,272.502 181.500 C 272.550 181.546,273.037 182.108,273.585 182.750 C 274.133 183.392,274.732 184.067,274.916 184.250 C 275.100 184.433,275.426 184.808,275.640 185.083 C 275.853 185.358,276.389 185.996,276.830 186.500 C 278.147 188.007,281.377 191.862,281.997 192.667 C 282.315 193.079,282.617 193.454,282.668 193.500 C 282.752 193.576,284.645 195.890,285.117 196.494 C 285.227 196.635,285.903 197.500,286.620 198.417 C 288.076 200.279,288.098 200.309,289.815 202.604 C 291.295 204.582,291.147 204.409,291.259 204.296 C 291.310 204.245,290.999 203.540,290.567 202.728 C 289.406 200.545,289.157 200.110,288.900 199.820 C 288.772 199.675,288.667 199.499,288.667 199.427 C 288.667 199.214,284.926 193.887,284.506 193.500 C 284.456 193.454,284.194 193.117,283.924 192.750 C 283.096 191.623,281.989 190.330,279.083 187.095 C 276.084 183.755,269.333 177.315,269.333 177.793 M264.269 181.302 C 264.218 181.386,264.417 181.677,264.713 181.950 C 265.317 182.508,269.223 186.641,270.348 187.915 C 270.753 188.372,271.272 188.935,271.502 189.165 C 271.732 189.395,272.134 189.846,272.395 190.167 C 272.656 190.487,273.145 191.050,273.481 191.417 C 273.818 191.783,274.569 192.646,275.152 193.333 C 275.734 194.021,276.557 194.989,276.980 195.484 C 277.404 195.980,277.860 196.542,277.994 196.734 C 278.128 196.926,278.380 197.233,278.553 197.417 C 278.726 197.600,279.065 198.012,279.308 198.333 C 279.550 198.654,279.786 198.954,279.832 199.000 C 279.879 199.046,280.215 199.458,280.580 199.917 C 280.945 200.375,281.338 200.849,281.455 200.970 C 281.571 201.091,281.667 201.242,281.667 201.305 C 281.667 201.368,281.837 201.607,282.045 201.835 C 282.253 202.063,282.792 202.756,283.244 203.375 C 284.099 204.548,284.468 204.826,284.127 204.042 C 283.924 203.576,283.813 203.364,282.843 201.583 C 282.311 200.608,280.680 198.000,280.497 197.833 C 280.446 197.787,280.037 197.225,279.588 196.583 C 279.138 195.942,278.728 195.379,278.677 195.333 C 278.625 195.287,278.286 194.875,277.922 194.417 C 275.408 191.249,270.174 185.968,266.595 182.990 C 266.327 182.766,265.839 182.356,265.512 182.079 C 264.522 181.240,264.367 181.143,264.269 181.302 M260.667 185.116 C 260.667 185.190,261.324 185.929,262.125 186.759 C 263.584 188.268,265.216 190.028,266.000 190.937 C 266.229 191.203,266.867 191.944,267.417 192.585 C 267.967 193.226,268.456 193.787,268.504 193.833 C 268.552 193.879,268.964 194.367,269.420 194.917 C 269.877 195.467,270.287 195.954,270.333 196.000 C 270.379 196.046,270.714 196.458,271.078 196.917 C 271.441 197.375,271.779 197.787,271.829 197.833 C 271.878 197.879,272.139 198.217,272.409 198.583 C 272.678 198.950,272.944 199.287,272.999 199.333 C 273.054 199.379,273.280 199.679,273.500 200.000 C 273.720 200.321,273.942 200.621,273.993 200.667 C 274.044 200.713,274.307 201.050,274.578 201.417 C 274.849 201.783,275.165 202.180,275.280 202.298 C 275.394 202.416,275.620 202.734,275.780 203.006 C 276.046 203.456,276.333 203.658,276.333 203.394 C 276.333 203.242,275.148 200.932,275.018 200.833 C 274.959 200.787,274.822 200.549,274.714 200.304 C 274.519 199.859,272.772 197.139,272.377 196.667 C 272.263 196.529,272.000 196.180,271.793 195.891 C 269.679 192.938,265.987 189.060,263.085 186.746 C 262.628 186.382,262.127 185.971,261.972 185.833 C 261.532 185.443,260.667 184.966,260.667 185.116 M96.460 189.951 C 96.668 189.991,96.968 189.990,97.127 189.948 C 97.286 189.906,97.117 189.874,96.750 189.875 C 96.383 189.877,96.253 189.911,96.460 189.951 M87.333 234.385 C 87.333 234.414,87.577 234.658,87.875 234.927 L 88.417 235.417 87.927 234.875 C 87.471 234.370,87.333 234.257,87.333 234.385 " stroke="none" fill="#bb534c" fill-rule="evenodd"></path></g></svg>